<svg width="32" height="32" viewBox="0 0 32 32" fill="none" xmlns="http://www.w3.org/2000/svg">
<path d="M31.9997 16.0372C32.0529 24.7421 24.9171 31.9572 16.2393 31.9998C7.28497 32.0424 0.0640996 24.9763 0.000292224 16.1223C-0.0528806 7.33226 7.15735 0.0320328 15.9415 0.000107591C24.8639 -0.0318176 31.9465 7.04494 31.9997 16.0372ZM19.7061 17.3674C19.7487 17.4313 19.8019 17.4951 19.8444 17.5483C19.0787 18.2507 18.3024 18.9318 17.5686 19.666C17.0794 20.1556 17.1432 20.8366 17.6537 21.3261C18.1429 21.7944 18.8341 21.837 19.302 21.3687C20.7909 19.8682 22.2691 18.3571 23.726 16.846C24.2046 16.3458 24.1939 15.6541 23.7047 15.1646C22.2159 13.6535 20.7058 12.153 19.1957 10.6631C18.9511 10.4184 18.6427 10.3013 18.2917 10.3439C17.7494 10.4184 17.3984 10.727 17.207 11.2165C17.0262 11.6954 17.1751 12.0998 17.5261 12.4403C18.2492 13.1533 18.9617 13.8663 19.7593 14.6538C19.5254 14.6538 19.3977 14.6538 19.2701 14.6538C16.0159 14.6538 12.7618 14.6538 9.50759 14.6538C9.13538 14.6538 8.79508 14.7176 8.50795 14.9624C8.05066 15.3348 7.88051 15.9201 8.07193 16.4629C8.26335 17.0056 8.77381 17.3674 9.40125 17.3674C12.7086 17.3674 16.0159 17.3674 19.3233 17.3674C19.4509 17.3674 19.5785 17.3674 19.7061 17.3674Z" fill="#388838"/>
</svg>
